<!DOCTYPE svg PUBLIC "-//W3C//DTD SVG 1.1//EN" "http://www.w3.org/Graphics/SVG/1.1/DTD/svg11.dtd"><svg xmlns="http://www.w3.org/2000/svg" width="285.749" height="110.205" viewBox="0 0 285.749 110.205"><style>.st0{fill:#fff}</style><path class="st0" d="M5.958 57.761L.777 73.099h16.785s2.742-8.484 6.01-18.717L5.958 57.761zM27.964 40.56c3.249-10.292 6.076-19.439 6.384-21.066h.216c.289 1.648 2.854 9.812 5.918 19.29l16.927-2.4L44.636 0H25.468L10.953 42.973l17.011-2.413zm16.311 9.852c3.665 11.171 7.058 21.337 7.466 22.56l11.776-19.197-2.32-6.607-16.922 3.244zm62.88-21.087L124.38 0h-19.169L92.108 23.717 78.788 0H59.295l20.006 33.277zm-31.56 15.08l-17.6 28.694h19.926l13.862-24.691 13.862 24.691h21.226l-21.827-34.341zm71.489-20.744V0h-16.893v26.059zm-16.893 10.275v39.163h16.893V30.695zm35.11-6.734l-15.503 45.896h16.785s11.627-35.979 15.543-49.123l-16.825 3.227zm34.061-10.957L193.658 0H174.49l-7.016 20.77zm-14.685 7.241c3.818 12.766 16.128 49.612 16.128 49.612h18.519L200.817 20.39l-16.14 3.096zm99.489-19.27V0h-16.245v6.521zm-16.245 3.306v16.519c0 6.932.217 16.569.759 22.851-2.6-5.631-5.632-12.021-8.881-17.978l-9.938-17.929-27.749 5.321v56.792h16.244V45.267c0-6.93-.216-14.294-.541-19.709a171.753 171.753 0 0 0 7.58 16.028l17.22 31.513h21.55V4.406l-16.244 3.116zm-19.038 1.699L243.772 0h-21.659v13.019zM11.6 109.875H0V93.263h2.62v14.449h8.98v2.163zm5.933-9.667h8.191v2.162h-8.191v5.342h9.59v2.163h-12.21V93.263h12.21v2.163h-9.59v4.782zm20.445-4.782v14.449h-2.62V95.426h-5.317v-2.163H43.32v2.163h-5.342zm8.741-3.359h2.417l-2.163 5.597-1.271-.255 1.017-5.342zm16.466 4.02c-1.501-.61-3.129-.916-4.859-.916-2.773 0-4.172.789-4.172 2.366 0 4.044 10.15 1.449 10.15 7.656 0 3.181-2.696 5.012-7.402 5.012-2.01 0-3.867-.356-5.521-1.094l.407-2.061c1.552.61 3.205.916 4.96.916 3.206 0 4.808-.865 4.808-2.595 0-4.07-10.124-1.476-10.124-7.683 0-3.053 2.442-4.757 6.817-4.757 1.908 0 3.688.355 5.342 1.094l-.406 2.062zm25.028 12.77c-1.756.89-3.714 1.348-5.851 1.348-5.139 0-7.708-2.849-7.708-8.547 0-5.826 2.543-8.726 7.631-8.726 2.01 0 3.791.381 5.393 1.119l-.407 2.061c-1.603-.61-3.103-.916-4.553-.916-3.663 0-5.342 2.162-5.342 6.513 0 4.299 1.654 6.232 5.317 6.232 1.043 0 2.01-.153 2.925-.483v-5.571h2.595v6.97zm6.954-5.011v6.029h-2.62V93.263h6.843c4.07 0 6.105 1.781 6.105 5.317 0 2.772-1.297 4.451-3.867 5.036l4.172 6.259h-3.078l-3.892-6.029h-3.663zm3.867-2.162c2.519 0 3.765-1.043 3.765-3.155 0-2.06-1.246-3.103-3.765-3.103h-3.867v6.258h3.867zm23.538-4.987c.611 1.552.738 2.926.738 4.782 0 5.825-2.467 8.726-7.428 8.726-3.765 0-5.622-1.577-6.513-3.765-.61-1.552-.737-2.926-.737-4.782 0-5.826 2.493-8.726 7.479-8.726 3.714.102 5.673 1.476 6.461 3.765zm-6.563 11.244c3.18 0 4.604-1.959 4.604-6.665 0-4.274-1.323-6.08-4.604-6.08-3.23 0-4.655 1.908-4.655 6.563 0 4.376 1.323 6.182 4.655 6.182zm26.683 1.934h-3.358l-3.383-13.941-3.358 13.941h-3.384l-3.586-16.612h2.671l2.824 13.839 3.18-13.839h3.307l3.18 13.839 2.824-13.839h2.671l-3.588 16.612zm21.11-14.449v14.449h-2.62V95.426h-5.316v-2.163h13.278v2.163h-5.342zm21.425 1.271c.61 1.552.737 2.926.737 4.782 0 5.825-2.467 8.726-7.428 8.726-3.765 0-5.622-1.577-6.513-3.765-.61-1.552-.737-2.926-.737-4.782 0-5.826 2.493-8.726 7.479-8.726 3.715.102 5.674 1.476 6.462 3.765zm-6.563 11.244c3.18 0 4.604-1.959 4.604-6.665 0-4.274-1.322-6.08-4.604-6.08-3.23 0-4.655 1.908-4.655 6.563-.001 4.376 1.323 6.182 4.655 6.182zm23.981.916c-1.755.89-3.714 1.348-5.851 1.348-5.139 0-7.708-2.849-7.708-8.547 0-5.826 2.544-8.726 7.632-8.726 2.01 0 3.79.381 5.393 1.119l-.407 2.061c-1.603-.61-3.104-.916-4.554-.916-3.663 0-5.342 2.162-5.342 6.513 0 4.299 1.653 6.232 5.316 6.232 1.043 0 2.01-.153 2.926-.483v-5.571h2.595v6.97zm6.955-8.649h8.191v2.162H209.6v5.342h9.591v2.163H206.98V93.263h12.211v2.163H209.6v4.782zm20.445-4.782v14.449h-2.62V95.426h-5.316v-2.163h13.278v2.163h-5.342zm21.906 14.449h-2.595v-7.454h-7.987v7.454h-2.62V93.263h2.62v6.996h7.987v-6.996h2.595v16.612zm7.352-9.667h8.19v2.162h-8.19v5.342h9.59v2.163h-12.211V93.263h12.211v2.163h-9.59v4.782zm15.813 3.638v6.029h-2.62V93.263h6.843c4.07 0 6.105 1.781 6.105 5.317 0 2.772-1.298 4.451-3.867 5.036l4.172 6.259h-3.077l-3.893-6.029h-3.663zm3.867-2.162c2.518 0 3.765-1.043 3.765-3.155 0-2.06-1.247-3.103-3.765-3.103h-3.867v6.258h3.867z"/></svg>